<svg width="32" height="32" viewBox="0 0 32 32" fill="none" xmlns="http://www.w3.org/2000/svg">
  <defs>
    <linearGradient id="brandGradient" x1="0%" y1="0%" x2="100%" y2="100%">
      <stop offset="0%" style="stop-color:#8b5cf6;stop-opacity:1" />
      <stop offset="100%" style="stop-color:#3b82f6;stop-opacity:1" />
    </linearGradient>
  </defs>
  
  <circle cx="16" cy="16" r="14" fill="url(#brandGradient)"/>
  
  <g transform="translate(6, 6)">
    <path d="M14 9.6c0-3.534-2.866-6.4-6.4-6.4s-6.4 2.866-6.4 6.4c0 1.13.292 2.192.806 3.116L2 13.2c-.222.333-.133.778.2 1s.778.133 1-.2L4.884 12.606C5.808 13.108 6.87 13.4 8 13.4h6.4c0 2.209-1.791 4-4 4h-2.4l-2 1.2c-.333.222-.422.667-.2 1s.667.422 1 .2L7.6 18.4H10.4c3.534 0 6.4-2.866 6.4-6.4V9.6z" fill="white" opacity="0.9"/>
    <circle cx="8" cy="10" r="1.6" fill="url(#brandGradient)" opacity="0.8"/>
    <circle cx="5" cy="8" r="0.8" fill="url(#brandGradient)" opacity="0.6"/>
    <circle cx="11" cy="8" r="0.8" fill="url(#brandGradient)" opacity="0.6"/>
  </g>
</svg>