<svg width="139" height="22" viewBox="0 0 139 22" fill="none" xmlns="http://www.w3.org/2000/svg">
<path d="M21 7.33333C27 17.1111 24 22 12 22C0 22 -3 17.1111 3 7.33333C9 -2.44444 15 -2.44444 21 7.33333Z" fill="black"/>
<g clip-path="url(#clip0_13_533)">
<path d="M41.3561 17.653C40.3255 17.912 39.2648 18.0322 38.2024 18.0104C35.0486 18.0104 31.979 16.3284 31.979 11.3245V8.67535C31.979 3.66092 35.0066 1.99996 38.2024 1.99996C39.2648 1.97812 40.3255 2.09832 41.3561 2.35738C41.6504 2.44148 41.8186 2.52558 41.8186 2.81993V4.85934C41.8272 4.91699 41.8223 4.97584 41.8043 5.03129C41.7864 5.08673 41.7559 5.13729 41.7152 5.179C41.6745 5.22072 41.6247 5.25247 41.5697 5.27179C41.5147 5.2911 41.456 5.29745 41.3982 5.29035C40.5992 5.22727 39.4428 5.12215 38.2444 5.12215C36.7937 5.12215 35.5953 5.87905 35.5953 8.67535V11.3245C35.5953 14.1208 36.7937 14.8672 38.2444 14.8672C39.4008 14.8672 40.5572 14.7621 41.3982 14.699C41.455 14.6922 41.5126 14.6984 41.5667 14.7172C41.6208 14.7359 41.67 14.7667 41.7105 14.8072C41.7509 14.8477 41.7817 14.8968 41.8004 14.9509C41.8192 15.005 41.8254 15.0626 41.8186 15.1195V17.1589C41.8186 17.4638 41.6504 17.5689 41.3561 17.653Z" fill="white"/>
<path d="M55.4217 17.8212H52.6465C52.5935 17.82 52.5414 17.8079 52.4932 17.7858C52.4451 17.7637 52.402 17.7319 52.3666 17.6926C52.3311 17.6532 52.3041 17.607 52.2872 17.5568C52.2702 17.5066 52.2637 17.4535 52.268 17.4007V12.2917H47.7056V17.4007C47.7085 17.4549 47.7002 17.5091 47.6815 17.5601C47.6627 17.611 47.6337 17.6575 47.5963 17.6969C47.5589 17.7362 47.5139 17.7676 47.464 17.7889C47.4141 17.8103 47.3604 17.8213 47.3061 17.8212H44.5308C44.4193 17.8212 44.3124 17.7769 44.2335 17.6981C44.1547 17.6192 44.1104 17.5123 44.1104 17.4007V6.67804C44.1104 2.88305 46.4021 2.04205 49.2614 2.04205H50.7963C53.6136 2.04205 55.8843 2.88305 55.8843 6.67804V17.4007C55.8846 17.4597 55.8725 17.518 55.8488 17.572C55.8251 17.626 55.7903 17.6743 55.7467 17.714C55.703 17.7536 55.6516 17.7837 55.5956 17.8021C55.5396 17.8206 55.4804 17.8271 55.4217 17.8212ZM52.268 6.67804C52.268 5.52167 51.9316 5.16425 50.7542 5.16425H49.2614C48.1051 5.16425 47.7477 5.52167 47.7477 6.67804V9.32717H52.3101L52.268 6.67804Z" fill="white"/>
<path d="M71.0851 2.63076L67.9313 15.6767C67.4478 17.6951 65.9129 18.0105 64.4622 18.0105C63.0115 18.0105 61.4557 17.6951 60.9721 15.6767L57.8184 2.63076C57.8184 2.63076 57.8184 2.56768 57.8184 2.52563C57.821 2.47867 57.833 2.43269 57.8535 2.39035C57.8739 2.348 57.9026 2.31012 57.9377 2.27886C57.9729 2.24761 58.0139 2.22361 58.0583 2.20822C58.1028 2.19284 58.1499 2.18639 58.1968 2.18923H61.1403C61.243 2.19507 61.3406 2.23574 61.4171 2.30455C61.4935 2.37335 61.5442 2.46617 61.5608 2.56768L64.1889 14.7096C64.1889 14.9408 64.294 15.0249 64.4832 15.0249C64.6725 15.0249 64.7355 14.9408 64.7776 14.7096L67.4057 2.56768C67.4177 2.46793 67.4642 2.37551 67.5372 2.30641C67.6101 2.23731 67.7049 2.19586 67.8052 2.18923H70.7487C70.7949 2.1847 70.8416 2.19013 70.8856 2.20513C70.9296 2.22014 70.9699 2.2444 71.0038 2.27626C71.0376 2.30812 71.0643 2.34686 71.0819 2.38987C71.0996 2.43288 71.1078 2.47917 71.1061 2.52563C71.097 2.56023 71.09 2.59533 71.0851 2.63076Z" fill="white"/>
<path d="M82.2914 17.7372C80.9416 17.9404 79.5774 18.0318 78.2126 18.0105C75.5004 18.0105 73.1035 17.3167 73.1035 13.4901V6.50987C73.1035 2.67283 75.5214 2.00003 78.2336 2.00003C79.5908 1.97134 80.9481 2.05573 82.2914 2.25233C82.5857 2.25233 82.7119 2.3995 82.7119 2.67283V4.65968C82.7092 4.77036 82.6641 4.87577 82.5858 4.95406C82.5075 5.03235 82.4021 5.07751 82.2914 5.08017H78.0233C77.0352 5.08017 76.6777 5.40606 76.6777 6.50987V8.42313H82.1232C82.2347 8.42313 82.3417 8.46743 82.4205 8.54629C82.4994 8.62515 82.5437 8.73211 82.5437 8.84363V10.841C82.5437 10.9525 82.4994 11.0595 82.4205 11.1383C82.3417 11.2172 82.2347 11.2615 82.1232 11.2615H76.6777V13.4901C76.6777 14.5414 77.0352 14.9198 78.0233 14.9198H82.2914C82.4029 14.9198 82.5099 14.9641 82.5887 15.043C82.6676 15.1218 82.7119 15.2288 82.7119 15.3403V17.2956C82.7119 17.569 82.5857 17.6951 82.2914 17.7372Z" fill="white"/>
<path d="M90.4494 18.021C88.951 18.0224 87.4545 17.917 85.9711 17.7056C85.8804 17.7038 85.7912 17.6826 85.7094 17.6432C85.6277 17.6038 85.5555 17.5472 85.4976 17.4774C85.4397 17.4076 85.3976 17.326 85.3741 17.2384C85.3506 17.1508 85.3462 17.0592 85.3614 16.9697V3.05126C85.3462 2.96182 85.3506 2.87017 85.3741 2.78256C85.3976 2.69495 85.4397 2.61344 85.4976 2.54359C85.5555 2.47374 85.6277 2.4172 85.7094 2.37781C85.7912 2.33843 85.8804 2.31714 85.9711 2.31539C87.4545 2.10401 88.951 1.99862 90.4494 2.00001C94.6544 2.00001 97.1563 4.20763 97.1563 8.65439V11.3666C97.1563 15.8028 94.6334 18.021 90.4494 18.021ZM93.6031 8.6649C93.6031 5.82654 92.3837 5.06965 90.4494 5.06965C89.9238 5.06965 89.251 5.06965 88.9566 5.06965V14.8883C89.251 14.8883 89.9238 14.8883 90.4494 14.8883C92.3416 14.8883 93.6031 14.1314 93.6031 11.293V8.6649Z" fill="white"/>
<path d="M110.549 17.6531C109.708 17.7792 107.08 18.0105 105.966 18.0105C102.244 18.0105 99.6582 16.7911 99.6582 11.9974V2.58869C99.6581 2.53441 99.6691 2.48069 99.6905 2.4308C99.7119 2.38091 99.7432 2.3359 99.7825 2.29852C99.8219 2.26113 99.8684 2.23216 99.9194 2.21337C99.9703 2.19458 100.024 2.18636 100.079 2.18921H102.875C102.929 2.18636 102.983 2.19458 103.034 2.21337C103.085 2.23216 103.132 2.26113 103.171 2.29852C103.211 2.3359 103.242 2.38091 103.263 2.4308C103.285 2.48069 103.296 2.53441 103.296 2.58869V12.0499C103.296 14.1524 103.863 15.0565 105.755 15.0565C106.578 15.0353 107.399 14.9722 108.215 14.8673V2.58869C108.215 2.53441 108.226 2.48069 108.248 2.4308C108.269 2.38091 108.3 2.3359 108.34 2.29852C108.379 2.26113 108.426 2.23216 108.477 2.21337C108.527 2.19458 108.582 2.18636 108.636 2.18921H111.369C111.424 2.18638 111.48 2.19448 111.532 2.21303C111.584 2.23159 111.632 2.26024 111.673 2.29735C111.714 2.33445 111.747 2.37929 111.771 2.42928C111.794 2.47927 111.808 2.53344 111.811 2.58869V16.2549C111.811 17.2326 111.432 17.5269 110.549 17.6531Z" fill="white"/>
<path d="M123.753 17.6531C122.722 17.9122 121.662 18.0324 120.599 18.0105C117.446 18.0105 114.376 16.3285 114.376 11.3246V8.67544C114.376 3.66099 117.404 2.00002 120.599 2.00002C121.662 1.97818 122.722 2.09839 123.753 2.35744C124.047 2.44154 124.216 2.52564 124.216 2.81999V4.85941C124.224 4.91707 124.219 4.97591 124.201 5.03136C124.183 5.08681 124.153 5.13736 124.112 5.17908C124.071 5.22079 124.022 5.25255 123.967 5.27186C123.912 5.29117 123.853 5.29753 123.795 5.29042C122.996 5.22735 121.84 5.12222 120.641 5.12222C119.191 5.12222 118.034 5.87912 118.034 8.67544V11.3246C118.034 14.1209 119.191 14.8778 120.641 14.8778C121.798 14.8778 122.954 14.7727 123.795 14.7096C123.852 14.7028 123.91 14.7091 123.964 14.7278C124.018 14.7466 124.067 14.7773 124.107 14.8178C124.148 14.8583 124.179 14.9074 124.197 14.9615C124.216 15.0156 124.222 15.0733 124.216 15.1301V17.1695C124.216 17.4639 124.047 17.569 123.753 17.6531Z" fill="white"/>
<path d="M138.681 2.71485L133.677 9.83181L138.702 17.3798C138.754 17.4457 138.784 17.5269 138.786 17.611C138.786 17.7372 138.681 17.8213 138.491 17.8213H134.875C134.778 17.8234 134.682 17.7965 134.599 17.7442C134.517 17.6918 134.452 17.6162 134.413 17.5269L130.145 10.5887V17.4008C130.145 17.5123 130.1 17.6193 130.021 17.6981C129.943 17.777 129.836 17.8213 129.724 17.8213H126.97C126.858 17.8213 126.751 17.777 126.672 17.6981C126.594 17.6193 126.549 17.5123 126.549 17.4008V2.5887C126.549 2.53443 126.56 2.4807 126.582 2.43082C126.603 2.38093 126.634 2.33592 126.674 2.29853C126.713 2.26115 126.76 2.23218 126.81 2.21338C126.861 2.19459 126.916 2.18637 126.97 2.18923H129.724C129.778 2.18637 129.833 2.19459 129.883 2.21338C129.934 2.23218 129.981 2.26115 130.02 2.29853C130.06 2.33592 130.091 2.38093 130.112 2.43082C130.134 2.4807 130.145 2.53443 130.145 2.5887V9.28516L134.77 2.44153C134.815 2.35925 134.882 2.29163 134.964 2.24685C135.046 2.20207 135.139 2.18206 135.233 2.18923H138.449C138.681 2.18923 138.786 2.29436 138.786 2.4205C138.776 2.52589 138.74 2.62711 138.681 2.71485Z" fill="white"/>
</g>
<path d="M22.0122 7.33333C26.1178 14.4444 24.065 18 15.8538 18C7.64258 18 5.58978 14.4444 9.69538 7.33333C13.801 0.222222 17.9066 0.222222 22.0122 7.33333Z" fill="white"/>
<path d="M12.8974 12.5956C14.8681 16.0089 13.8828 17.7156 9.94138 17.7156C6 17.7156 5.01466 16.0089 6.98534 12.5956C8.95603 9.18225 10.9267 9.18225 12.8974 12.5956Z" fill="#FFB400"/>
<path d="M16.5925 10.4623C17.0852 11.3157 16.8389 11.7423 15.8535 11.7423C14.8682 11.7423 14.6218 11.3157 15.1145 10.4623C15.6072 9.60899 16.0998 9.60899 16.5925 10.4623Z" fill="black"/>
<defs>
<clipPath id="clip0_13_533">
<rect width="106.786" height="16" fill="white" transform="translate(32 2)"/>
</clipPath>
</defs>
</svg>
