<svg width="981" height="355" viewBox="0 0 981 355" fill="none" xmlns="http://www.w3.org/2000/svg">
<path fill-rule="evenodd" clip-rule="evenodd" d="M78.1536 94.1635C79.1875 91.2309 80.2125 88.3234 80.5867 87.0452H80.5768C79.7081 85.9493 47.2772 108.172 37.6614 116.356C15.3794 135.331 2.08121 159.262 0.827414 189.462C-0.762046 227.727 17.729 254.886 46.2504 277.563C65.726 293.043 84.9585 308.832 104.193 324.624C113.713 332.439 123.232 340.254 132.782 348.033C132.98 348.19 134.154 349 134.352 349C134.577 348.992 135.182 348.393 135.442 348.135C135.49 348.087 135.526 348.051 135.546 348.033C163.021 323.194 191.632 299.875 221.417 278.175C278.42 236.652 276.357 175.601 255.408 130.731C239.128 95.8612 210.389 73.0362 177.504 54.7525C176.029 53.9323 174.551 53.1158 173.072 52.2989C164.492 47.5601 155.889 42.8093 147.848 37.2684C142.339 33.4675 138.597 28.8275 136.83 23.4075C135.26 18.57 134.717 6.89095 137.788 0C117.707 11.7877 107.627 33.6551 112.109 58.5928C113.75 67.7211 116.526 76.6368 119.305 85.5612C121.007 91.0278 122.71 96.4976 124.154 102.022C127.076 113.227 125.269 123.405 115.041 130.553C106.561 136.466 91.8314 136.348 83.5189 130.296C73.3009 122.862 72.4123 112.743 75.6307 101.558C76.0117 100.239 77.0873 97.1881 78.1536 94.1635ZM119.617 291.668C124.847 295.462 130.058 299.243 135.221 303.034C140.44 299.207 145.711 295.407 150.996 291.597C163.748 282.404 176.582 273.152 188.957 263.317C199.135 255.222 209.185 246.258 216.876 235.902C226.748 222.603 227.469 206.847 219.443 192.038C211.525 177.407 197.881 169.816 181.819 172.175C168.856 174.08 155.835 179.135 144.235 185.374C136.87 189.333 132.812 189.541 126.03 185.049C118.448 180.024 109.691 176.203 100.924 173.616C81.7322 167.94 62.1553 174.712 52.3914 189.195C42.5387 203.816 43.3187 224.686 56.0837 239.929C63.6756 249.002 73.0445 256.801 82.453 264.097C94.6731 273.573 107.196 282.658 119.617 291.668Z" fill="url(#paint0_linear_120_101)"/>
<mask id="path-2-inside-1_120_101" fill="white">
<path fill-rule="evenodd" clip-rule="evenodd" d="M93.8613 226.825C98.4553 245.386 115.222 259.146 135.203 259.146C155.184 259.146 171.951 245.386 176.545 226.825H159.765C155.747 236.426 146.263 243.173 135.203 243.173C124.144 243.173 114.66 236.426 110.642 226.825H93.8613Z"/>
</mask>
<path d="M93.8613 226.825V214.046H77.5341L81.4568 229.895L93.8613 226.825ZM176.545 226.825L188.95 229.895L192.872 214.046H176.545V226.825ZM159.765 226.825V214.046H151.26L147.977 221.892L159.765 226.825ZM110.642 226.825L122.43 221.892L119.147 214.046H110.642V226.825ZM135.203 246.367C121.235 246.367 109.482 236.747 106.266 223.755L81.4568 229.895C87.4289 254.024 109.21 271.925 135.203 271.925V246.367ZM164.141 223.755C160.925 236.747 149.172 246.367 135.203 246.367V271.925C161.197 271.925 182.978 254.024 188.95 229.895L164.141 223.755ZM176.545 214.046H159.765V239.604H176.545V214.046ZM135.203 255.951C151.593 255.951 165.617 245.945 171.553 231.758L147.977 221.892C145.877 226.908 140.933 230.394 135.203 230.394V255.951ZM98.8532 231.758C104.79 245.945 118.813 255.951 135.203 255.951V230.394C129.474 230.394 124.529 226.908 122.43 221.892L98.8532 231.758ZM110.642 214.046H93.8613V239.604H110.642V214.046Z" fill="url(#paint1_linear_120_101)" mask="url(#path-2-inside-1_120_101)"/>
<path d="M361.319 329.567C352.199 329.567 344.159 327.807 337.199 324.287C330.319 320.767 324.999 315.727 321.239 309.167C317.479 302.527 315.599 294.767 315.599 285.887C315.599 277.007 317.479 269.287 321.239 262.727C324.999 256.087 330.319 251.007 337.199 247.487C344.159 243.887 352.199 242.087 361.319 242.087C367.319 242.087 372.679 242.687 377.399 243.887C382.119 245.087 386.479 246.967 390.479 249.527V269.687C386.959 266.887 382.959 264.847 378.479 263.567C374.079 262.287 368.999 261.647 363.239 261.647C354.999 261.647 348.639 263.807 344.159 268.127C339.679 272.367 337.439 278.287 337.439 285.887C337.439 293.487 339.679 299.447 344.159 303.767C348.719 308.087 355.079 310.247 363.239 310.247C368.999 310.247 374.159 309.567 378.719 308.207C383.279 306.847 387.519 304.687 391.439 301.727V321.767C383.839 326.967 373.799 329.567 361.319 329.567ZM429.869 329.567C422.749 329.567 416.509 328.287 411.149 325.727C405.789 323.087 401.629 319.487 398.669 314.927C395.789 310.287 394.349 304.967 394.349 298.967C394.349 292.967 395.789 287.687 398.669 283.127C401.629 278.487 405.789 274.887 411.149 272.327C416.509 269.687 422.749 268.367 429.869 268.367C436.989 268.367 443.229 269.687 448.589 272.327C453.949 274.887 458.069 278.487 460.949 283.127C463.909 287.687 465.389 292.967 465.389 298.967C465.389 304.967 463.909 310.287 460.949 314.927C458.069 319.487 453.949 323.087 448.589 325.727C443.229 328.287 436.989 329.567 429.869 329.567ZM429.869 313.127C434.109 313.127 437.469 311.887 439.949 309.407C442.509 306.847 443.789 303.367 443.789 298.967C443.789 294.567 442.509 291.127 439.949 288.647C437.469 286.087 434.109 284.807 429.869 284.807C425.629 284.807 422.229 286.087 419.669 288.647C417.189 291.127 415.949 294.567 415.949 298.967C415.949 303.367 417.189 306.847 419.669 309.407C422.229 311.887 425.629 313.127 429.869 313.127ZM473.741 270.167H493.301V276.407C495.701 273.847 498.461 271.887 501.581 270.527C504.701 269.087 508.021 268.367 511.541 268.367C515.861 268.367 519.301 269.007 521.861 270.287C524.501 271.567 526.621 273.487 528.221 276.047C530.621 273.647 533.541 271.767 536.981 270.407C540.421 269.047 543.901 268.367 547.421 268.367C555.021 268.367 560.421 270.327 563.621 274.247C566.821 278.087 568.421 283.647 568.421 290.927V327.767H548.261V293.927C548.261 290.727 547.661 288.407 546.461 286.967C545.261 285.527 543.261 284.807 540.461 284.807C536.861 284.807 533.941 286.087 531.701 288.647C531.781 290.007 531.821 292.087 531.821 294.887V327.767H511.661V293.087C511.661 290.127 511.141 288.007 510.101 286.727C509.061 285.447 507.221 284.807 504.581 284.807C500.501 284.807 496.981 287.087 494.021 291.647V327.767H473.741V270.167ZM578.624 270.167H599.024V275.927C604.384 270.887 611.184 268.367 619.424 268.367C625.424 268.367 630.744 269.647 635.384 272.207C640.024 274.687 643.624 278.247 646.184 282.887C648.744 287.447 650.024 292.767 650.024 298.847C650.024 304.847 648.744 310.207 646.184 314.927C643.624 319.567 640.024 323.167 635.384 325.727C630.824 328.287 625.504 329.567 619.424 329.567C615.584 329.567 611.904 328.967 608.384 327.767C604.944 326.647 602.064 325.087 599.744 323.087V354.047H578.624V270.167ZM613.904 313.127C618.224 313.127 621.704 311.847 624.344 309.287C626.984 306.727 628.304 303.247 628.304 298.847C628.304 294.447 626.984 291.007 624.344 288.527C621.704 285.967 618.224 284.687 613.904 284.687C610.704 284.687 607.824 285.527 605.264 287.207C602.704 288.807 600.864 291.007 599.744 293.807V304.007C600.864 306.807 602.704 309.047 605.264 310.727C607.824 312.327 610.704 313.127 613.904 313.127ZM677.101 329.567C669.901 329.567 664.061 327.847 659.581 324.407C655.181 320.887 652.981 316.007 652.981 309.767C652.981 303.287 655.101 298.327 659.341 294.887C663.661 291.367 669.821 289.607 677.821 289.607C680.941 289.607 684.061 289.967 687.181 290.687C690.301 291.327 692.981 292.207 695.221 293.327V292.127C695.221 285.967 690.181 282.887 680.101 282.887C673.061 282.887 666.621 284.247 660.781 286.967V272.447C663.341 271.247 666.701 270.287 670.861 269.567C675.021 268.767 679.341 268.367 683.821 268.367C694.541 268.367 702.621 270.527 708.061 274.847C713.581 279.087 716.341 285.047 716.341 292.727V327.767H696.541V322.847C694.381 324.927 691.661 326.567 688.381 327.767C685.101 328.967 681.341 329.567 677.101 329.567ZM683.341 316.607C685.821 316.607 688.141 316.127 690.301 315.167C692.461 314.127 694.101 312.807 695.221 311.207V306.167C691.781 303.847 687.861 302.687 683.461 302.687C680.661 302.687 678.501 303.287 676.981 304.487C675.461 305.687 674.701 307.447 674.701 309.767C674.701 311.927 675.421 313.607 676.861 314.807C678.381 316.007 680.541 316.607 683.341 316.607ZM726.514 270.167H746.914V276.527C749.394 273.807 752.394 271.767 755.914 270.407C759.434 269.047 763.114 268.367 766.954 268.367C775.034 268.367 780.994 270.487 784.834 274.727C788.754 278.887 790.714 284.567 790.714 291.767V327.767H769.594V294.527C769.594 288.047 766.634 284.807 760.714 284.807C757.994 284.807 755.514 285.447 753.274 286.727C751.034 287.927 749.154 289.807 747.634 292.367V327.767H726.514V270.167ZM812.208 262.487C809.008 262.487 806.328 261.447 804.168 259.367C802.008 257.287 800.928 254.647 800.928 251.447C800.928 248.327 802.008 245.727 804.168 243.647C806.328 241.487 809.008 240.407 812.208 240.407C815.328 240.407 817.968 241.487 820.128 243.647C822.368 245.727 823.488 248.327 823.488 251.447C823.488 254.567 822.368 257.207 820.128 259.367C817.968 261.447 815.328 262.487 812.208 262.487ZM801.648 270.167H822.768V327.767H801.648V270.167ZM867.447 329.567C860.327 329.567 854.087 328.287 848.727 325.727C843.367 323.087 839.207 319.487 836.247 314.927C833.367 310.287 831.927 304.967 831.927 298.967C831.927 292.967 833.367 287.687 836.247 283.127C839.207 278.487 843.367 274.887 848.727 272.327C854.087 269.687 860.327 268.367 867.447 268.367C874.567 268.367 880.807 269.687 886.167 272.327C891.527 274.887 895.647 278.487 898.527 283.127C901.487 287.687 902.967 292.967 902.967 298.967C902.967 304.967 901.487 310.287 898.527 314.927C895.647 319.487 891.527 323.087 886.167 325.727C880.807 328.287 874.567 329.567 867.447 329.567ZM867.447 313.127C871.687 313.127 875.047 311.887 877.527 309.407C880.087 306.847 881.367 303.367 881.367 298.967C881.367 294.567 880.087 291.127 877.527 288.647C875.047 286.087 871.687 284.807 867.447 284.807C863.207 284.807 859.807 286.087 857.247 288.647C854.767 291.127 853.527 294.567 853.527 298.967C853.527 303.367 854.767 306.847 857.247 309.407C859.807 311.887 863.207 313.127 867.447 313.127ZM911.319 270.167H931.719V276.527C934.199 273.807 937.199 271.767 940.719 270.407C944.239 269.047 947.919 268.367 951.759 268.367C959.839 268.367 965.799 270.487 969.639 274.727C973.559 278.887 975.519 284.567 975.519 291.767V327.767H954.399V294.527C954.399 288.047 951.439 284.807 945.519 284.807C942.799 284.807 940.319 285.447 938.079 286.727C935.839 287.927 933.959 289.807 932.439 292.367V327.767H911.319V270.167Z" fill="url(#paint2_linear_120_101)"/>
<path d="M318.132 124.12H348.252C357.452 124.12 365.492 125.8 372.372 129.16C379.252 132.52 384.532 137.36 388.212 143.68C391.972 149.92 393.852 157.24 393.852 165.64C393.852 179.56 389.772 190.12 381.612 197.32C373.452 204.44 362.132 208 347.652 208H318.132V124.12ZM349.452 190.12C356.732 190.12 362.292 187.92 366.132 183.52C370.052 179.12 372.012 173.16 372.012 165.64C372.012 158.76 370.052 153.12 366.132 148.72C362.292 144.24 356.972 142 350.172 142H339.372V190.12H349.452ZM402.273 150.4H422.673V157.6C424.913 155.04 428.073 153.08 432.153 151.72C436.233 150.28 440.753 149.56 445.713 149.56V165.76C440.433 165.76 435.753 166.52 431.673 168.04C427.673 169.56 424.913 171.84 423.393 174.88V208H402.273V150.4ZM485.566 209.8C474.286 209.8 465.406 207.16 458.926 201.88C452.526 196.6 449.326 189.12 449.326 179.44C449.326 169.92 452.166 162.4 457.846 156.88C463.606 151.36 471.886 148.6 482.686 148.6C489.566 148.6 495.446 149.92 500.326 152.56C505.286 155.12 509.006 158.68 511.486 163.24C514.046 167.72 515.326 172.8 515.326 178.48V186.28H469.366C470.166 189.48 472.166 191.8 475.366 193.24C478.566 194.68 482.926 195.4 488.446 195.4C492.206 195.4 496.046 195.08 499.966 194.44C503.966 193.8 507.406 192.92 510.286 191.8V205.72C507.326 206.92 503.606 207.88 499.126 208.6C494.726 209.4 490.206 209.8 485.566 209.8ZM495.406 173.08C495.086 169.96 493.806 167.52 491.566 165.76C489.326 164 486.246 163.12 482.326 163.12C478.486 163.12 475.446 164.04 473.206 165.88C470.966 167.64 469.686 170.04 469.366 173.08H495.406ZM545.399 209.8C538.199 209.8 532.359 208.08 527.879 204.64C523.479 201.12 521.279 196.24 521.279 190C521.279 183.52 523.399 178.56 527.639 175.12C531.959 171.6 538.119 169.84 546.119 169.84C549.239 169.84 552.359 170.2 555.479 170.92C558.599 171.56 561.279 172.44 563.519 173.56V172.36C563.519 166.2 558.479 163.12 548.399 163.12C541.359 163.12 534.919 164.48 529.079 167.2V152.68C531.639 151.48 534.999 150.52 539.159 149.8C543.319 149 547.639 148.6 552.119 148.6C562.839 148.6 570.919 150.76 576.359 155.08C581.879 159.32 584.639 165.28 584.639 172.96V208H564.839V203.08C562.679 205.16 559.959 206.8 556.679 208C553.399 209.2 549.639 209.8 545.399 209.8ZM551.639 196.84C554.119 196.84 556.439 196.36 558.599 195.4C560.759 194.36 562.399 193.04 563.519 191.44V186.4C560.079 184.08 556.159 182.92 551.759 182.92C548.959 182.92 546.799 183.52 545.279 184.72C543.759 185.92 542.999 187.68 542.999 190C542.999 192.16 543.719 193.84 545.159 195.04C546.679 196.24 548.839 196.84 551.639 196.84ZM594.812 150.4H614.372V156.64C616.772 154.08 619.532 152.12 622.652 150.76C625.772 149.32 629.092 148.6 632.612 148.6C636.932 148.6 640.372 149.24 642.932 150.52C645.572 151.8 647.692 153.72 649.292 156.28C651.692 153.88 654.612 152 658.052 150.64C661.492 149.28 664.972 148.6 668.492 148.6C676.092 148.6 681.492 150.56 684.692 154.48C687.892 158.32 689.492 163.88 689.492 171.16V208H669.332V174.16C669.332 170.96 668.732 168.64 667.532 167.2C666.332 165.76 664.332 165.04 661.532 165.04C657.932 165.04 655.012 166.32 652.772 168.88C652.852 170.24 652.892 172.32 652.892 175.12V208H632.732V173.32C632.732 170.36 632.212 168.24 631.172 166.96C630.132 165.68 628.292 165.04 625.652 165.04C621.572 165.04 618.052 167.32 615.092 171.88V208H594.812V150.4Z" fill="white"/>
<defs>
<linearGradient id="paint0_linear_120_101" x1="-24.9359" y1="101.686" x2="269.262" y2="317.398" gradientUnits="userSpaceOnUse">
<stop stop-color="#E3439F"/>
<stop offset="0.48" stop-color="#F54D71"/>
<stop offset="1" stop-color="#FF7A00"/>
</linearGradient>
<linearGradient id="paint1_linear_120_101" x1="94.038" y1="240.008" x2="176.37" y2="238.382" gradientUnits="userSpaceOnUse">
<stop stop-color="#F85461"/>
<stop offset="1" stop-color="#FC6638"/>
</linearGradient>
<linearGradient id="paint2_linear_120_101" x1="242.77" y1="303.971" x2="1048.3" y2="310.128" gradientUnits="userSpaceOnUse">
<stop stop-color="#FA633C"/>
<stop offset="1" stop-color="#FF3A81"/>
</linearGradient>
</defs>
</svg>
