<svg width="312" height="58" viewBox="0 0 312 58" fill="none" xmlns="http://www.w3.org/2000/svg">
<path d="M120 9.08108C120 4.06574 124.066 0 129.081 0H297.919C302.934 0 307 4.06574 307 9.08109V39.9189C307 44.9343 302.934 49 297.919 49H293.878C293.725 49.4125 293.889 50.5825 294.427 53.108C294.91 55.3725 295.258 57.2577 295.201 57.2979C294.927 57.4904 283.047 54.4225 274.122 49.8114C273.396 49.5739 272.685 49.3028 271.991 49H129.081C124.066 49 120 44.9343 120 39.9189V9.08108Z" fill="url(#paint0_linear_7216_6373)"/>
<path d="M129.449 27.9309C129.449 25.6679 129.818 23.7736 130.555 22.2479C131.293 20.6969 132.297 19.5273 133.569 18.739C134.84 17.9254 136.277 17.5185 137.878 17.5185C139.201 17.5185 140.37 17.8872 141.387 18.6246C142.404 19.362 143.205 20.4045 143.79 21.7521C144.375 23.0743 144.667 24.6381 144.667 26.4434L142.722 26.6341C142.722 25.5662 142.582 24.7017 142.303 24.0406C142.048 23.354 141.667 22.8455 141.158 22.5149C140.675 22.1844 140.091 22.0191 139.404 22.0191C138.184 22.0191 137.166 22.5022 136.353 23.4684C135.565 24.4347 135.17 25.8204 135.17 27.6258C135.17 28.8971 135.323 29.9523 135.628 30.7914C135.933 31.6305 136.365 32.2535 136.925 32.6603C137.484 33.0672 138.133 33.2706 138.87 33.2706C139.633 33.2706 140.408 33.0799 141.197 32.6985C141.985 32.3171 142.671 31.7704 143.256 31.0584V34.8343C142.493 35.9023 141.591 36.7795 140.548 37.466C139.506 38.1271 138.311 38.4577 136.963 38.4577C135.615 38.4577 134.369 38.0254 133.225 37.1609C132.081 36.2964 131.166 35.0759 130.479 33.4994C129.793 31.9229 129.449 30.0668 129.449 27.9309ZM143.409 38L142.684 34.1859V10.7295L148.405 9.96669V33.2324C148.405 33.7664 148.418 34.2495 148.443 34.6818C148.494 35.0886 148.57 35.5717 148.672 36.1311L148.977 38H143.409ZM152.728 28.3886C152.728 26.2019 153.148 24.2948 153.987 22.6675C154.826 21.0402 155.983 19.7815 157.458 18.8916C158.933 17.9762 160.624 17.5185 162.531 17.5185C164.361 17.5185 165.938 17.9254 167.26 18.739C168.608 19.5527 169.637 20.7096 170.349 22.2098C171.087 23.6846 171.456 25.4645 171.456 27.5495C171.456 27.9817 171.43 28.3886 171.379 28.77C171.354 29.1514 171.316 29.4565 171.265 29.6854H156.81V26.062H167.146L165.963 27.6258C165.963 25.6679 165.645 24.244 165.01 23.354C164.4 22.4387 163.535 21.981 162.416 21.981C161.628 21.981 160.916 22.1844 160.28 22.5912C159.67 22.998 159.187 23.6464 158.831 24.5364C158.475 25.4263 158.297 26.5833 158.297 28.0072C158.297 29.3548 158.539 30.4609 159.022 31.3254C159.505 32.1645 160.166 32.7875 161.005 33.1943C161.87 33.6011 162.874 33.8045 164.018 33.8045C164.781 33.8045 165.569 33.7028 166.383 33.4994C167.222 33.2706 167.959 32.9909 168.595 32.6603L170.159 36.9321C169.243 37.3389 168.214 37.6949 167.069 38C165.951 38.3051 164.717 38.4577 163.37 38.4577C161.132 38.4577 159.212 38.0381 157.61 37.199C156.034 36.36 154.826 35.1903 153.987 33.6901C153.148 32.1645 152.728 30.3973 152.728 28.3886ZM173.761 36.6651L175.706 32.1264C176.52 32.6095 177.448 33.029 178.491 33.385C179.533 33.7155 180.563 33.8808 181.58 33.8808C182.546 33.8808 183.207 33.7537 183.563 33.4994C183.919 33.2197 184.097 32.8892 184.097 32.5078C184.097 32.2535 184.008 32.0246 183.83 31.8212C183.678 31.6178 183.411 31.4271 183.029 31.2491C182.673 31.0711 182.19 30.8804 181.58 30.677C178.986 29.7871 177.168 28.8081 176.126 27.7402C175.083 26.6468 174.562 25.3373 174.562 23.8117C174.562 22.6421 174.88 21.5868 175.516 20.646C176.151 19.6798 177.079 18.917 178.3 18.3576C179.52 17.7982 180.995 17.5185 182.724 17.5185C183.97 17.5185 185.178 17.6711 186.348 17.9762C187.543 18.2813 188.611 18.6627 189.551 19.1204L187.683 23.5066C186.92 23.1252 186.055 22.7946 185.089 22.5149C184.123 22.2352 183.233 22.0954 182.419 22.0954C181.656 22.0954 181.084 22.2098 180.703 22.4387C180.321 22.6675 180.131 22.9726 180.131 23.354C180.131 23.6083 180.207 23.8371 180.36 24.0406C180.538 24.244 180.83 24.4474 181.237 24.6508C181.644 24.8542 182.216 25.0831 182.953 25.3373C184.657 25.9222 186.03 26.5451 187.072 27.2062C188.115 27.8419 188.865 28.5666 189.323 29.3802C189.806 30.1685 190.047 31.0966 190.047 32.1645C190.047 33.4104 189.679 34.5038 188.941 35.4446C188.229 36.3854 187.212 37.1228 185.89 37.6567C184.593 38.1907 183.055 38.4577 181.275 38.4577C179.8 38.4577 178.414 38.2924 177.118 37.9619C175.846 37.6059 174.727 37.1736 173.761 36.6651ZM194.18 38V17.9762H199.901V38H194.18ZM193.76 12.217C193.76 11.327 194.065 10.5642 194.676 9.92855C195.286 9.26745 196.074 8.9369 197.04 8.9369C198.007 8.9369 198.795 9.26745 199.405 9.92855C200.015 10.5642 200.32 11.327 200.32 12.217C200.32 13.1069 200.015 13.8825 199.405 14.5436C198.795 15.1792 198.007 15.4971 197.04 15.4971C196.074 15.4971 195.286 15.1792 194.676 14.5436C194.065 13.8825 193.76 13.1069 193.76 12.217ZM205.042 17.9762H210.611L211.336 21.981V38H205.615V22.7438C205.615 22.2098 205.589 21.7394 205.538 21.3326C205.513 20.9003 205.449 20.4045 205.348 19.8451L205.042 17.9762ZM210.764 25.4899V21.9047C211.552 20.5316 212.531 19.4637 213.7 18.7009C214.87 17.9126 216.141 17.5185 217.514 17.5185V23.1633C216.014 23.1633 214.756 23.3286 213.738 23.6592C212.747 23.9897 211.755 24.6 210.764 25.4899ZM219.81 28.3886C219.81 26.2019 220.229 24.2948 221.068 22.6675C221.907 21.0402 223.064 19.7815 224.539 18.8916C226.014 17.9762 227.705 17.5185 229.612 17.5185C231.443 17.5185 233.019 17.9254 234.341 18.739C235.689 19.5527 236.719 20.7096 237.431 22.2098C238.168 23.6846 238.537 25.4645 238.537 27.5495C238.537 27.9817 238.511 28.3886 238.46 28.77C238.435 29.1514 238.397 29.4565 238.346 29.6854H223.891V26.062H234.227L233.044 27.6258C233.044 25.6679 232.727 24.244 232.091 23.354C231.481 22.4387 230.616 21.981 229.497 21.981C228.709 21.981 227.997 22.1844 227.362 22.5912C226.751 22.998 226.268 23.6464 225.912 24.5364C225.556 25.4263 225.378 26.5833 225.378 28.0072C225.378 29.3548 225.62 30.4609 226.103 31.3254C226.586 32.1645 227.247 32.7875 228.086 33.1943C228.951 33.6011 229.955 33.8045 231.099 33.8045C231.862 33.8045 232.65 33.7028 233.464 33.4994C234.303 33.2706 235.04 32.9909 235.676 32.6603L237.24 36.9321C236.325 37.3389 235.295 37.6949 234.151 38C233.032 38.3051 231.799 38.4577 230.451 38.4577C228.213 38.4577 226.294 38.0381 224.692 37.199C223.115 36.36 221.907 35.1903 221.068 33.6901C220.229 32.1645 219.81 30.3973 219.81 28.3886ZM240.842 36.6651L242.788 32.1264C243.601 32.6095 244.529 33.029 245.572 33.385C246.614 33.7155 247.644 33.8808 248.661 33.8808C249.627 33.8808 250.289 33.7537 250.645 33.4994C251.001 33.2197 251.179 32.8892 251.179 32.5078C251.179 32.2535 251.09 32.0246 250.912 31.8212C250.759 31.6178 250.492 31.4271 250.111 31.2491C249.755 31.0711 249.271 30.8804 248.661 30.677C246.068 29.7871 244.25 28.8081 243.207 27.7402C242.165 26.6468 241.643 25.3373 241.643 23.8117C241.643 22.6421 241.961 21.5868 242.597 20.646C243.233 19.6798 244.161 18.917 245.381 18.3576C246.602 17.7982 248.076 17.5185 249.805 17.5185C251.051 17.5185 252.259 17.6711 253.429 17.9762C254.624 18.2813 255.692 18.6627 256.633 19.1204L254.764 23.5066C254.001 23.1252 253.136 22.7946 252.17 22.5149C251.204 22.2352 250.314 22.0954 249.5 22.0954C248.738 22.0954 248.165 22.2098 247.784 22.4387C247.403 22.6675 247.212 22.9726 247.212 23.354C247.212 23.6083 247.288 23.8371 247.441 24.0406C247.619 24.244 247.911 24.4474 248.318 24.6508C248.725 24.8542 249.297 25.0831 250.034 25.3373C251.738 25.9222 253.111 26.5451 254.153 27.2062C255.196 27.8419 255.946 28.5666 256.404 29.3802C256.887 30.1685 257.128 31.0966 257.128 32.1645C257.128 33.4104 256.76 34.5038 256.022 35.4446C255.31 36.3854 254.293 37.1228 252.971 37.6567C251.674 38.1907 250.136 38.4577 248.356 38.4577C246.881 38.4577 245.496 38.2924 244.199 37.9619C242.927 37.6059 241.809 37.1736 240.842 36.6651Z" fill="#EAEAEA"/>
<path fillRule="evenodd" clipRule="evenodd" d="M274.424 14.3335C273.319 14.5487 272.097 15.1064 271.077 15.862C270.036 16.633 268.85 18.1844 268.39 19.3778C267.877 20.7072 267.816 21.0516 267.812 22.6693C267.808 23.9422 267.833 24.2606 267.988 24.9535C268.662 27.9658 270.145 30.377 273.215 33.4576C275.224 35.4735 277.151 37.0571 279.601 38.7082C280.468 39.2916 282.225 40.4073 282.777 40.7236C282.9 40.7944 283.513 40.4342 285.478 39.1359C288.954 36.8396 292.181 34.0961 294.043 31.8554C294.256 31.5988 294.48 31.3362 294.541 31.2718C294.74 31.0616 295.456 30.0699 295.892 29.3983C296.831 27.9541 297.418 26.5654 297.749 25.0046C297.972 23.9515 298.03 21.9943 297.863 21.1508C297.495 19.2919 296.793 17.9497 295.521 16.669C294.429 15.569 293.173 14.8287 291.744 14.442C290.753 14.1738 289.27 14.189 288.219 14.4783C286.519 14.9466 284.972 15.9049 283.522 17.3871L282.889 18.0343L282.16 17.3085C280.695 15.8518 279.105 14.8874 277.435 14.4447C276.666 14.2407 275.182 14.1859 274.424 14.3335Z" fill="white"/>
<path d="M0.953514 36.6651L2.89868 32.1264C3.71235 32.6095 4.64043 33.029 5.68294 33.385C6.72545 33.7155 7.75525 33.8808 8.77233 33.8808C9.73856 33.8808 10.3997 33.7537 10.7556 33.4994C11.1116 33.2197 11.2896 32.8892 11.2896 32.5078C11.2896 32.2535 11.2006 32.0246 11.0226 31.8212C10.8701 31.6178 10.6031 31.4271 10.2217 31.2491C9.86569 31.0711 9.38258 30.8804 8.77233 30.677C6.17877 29.7871 4.36074 28.8081 3.31823 27.7402C2.27572 26.6468 1.75447 25.3373 1.75447 23.8117C1.75447 22.6421 2.0723 21.5868 2.70798 20.646C3.34366 19.6798 4.27174 18.917 5.49224 18.3576C6.71274 17.7982 8.18751 17.5185 9.91655 17.5185C11.1625 17.5185 12.3703 17.6711 13.5399 17.9762C14.735 18.2813 15.8029 18.6627 16.7437 19.1204L14.8748 23.5066C14.112 23.1252 13.2475 22.7946 12.2813 22.5149C11.315 22.2352 10.4251 22.0954 9.61142 22.0954C8.84861 22.0954 8.2765 22.2098 7.8951 22.4387C7.51369 22.6675 7.32299 22.9726 7.32299 23.354C7.32299 23.6083 7.39927 23.8371 7.55183 24.0406C7.72982 24.244 8.02223 24.4474 8.42906 24.6508C8.8359 24.8542 9.408 25.0831 10.1454 25.3373C11.849 25.9222 13.2221 26.5451 14.2646 27.2062C15.3071 27.8419 16.0572 28.5666 16.5149 29.3802C16.998 30.1685 17.2395 31.0966 17.2395 32.1645C17.2395 33.4104 16.8708 34.5038 16.1335 35.4446C15.4215 36.3854 14.4044 37.1228 13.0822 37.6567C11.7854 38.1907 10.2471 38.4577 8.4672 38.4577C6.99244 38.4577 5.60666 38.2924 4.30988 37.9619C3.03853 37.6059 1.91974 37.1736 0.953514 36.6651ZM19.9609 28.3886C19.9609 26.2019 20.3805 24.2948 21.2196 22.6675C22.0587 21.0402 23.2156 19.7815 24.6903 18.8916C26.1651 17.9762 27.856 17.5185 29.763 17.5185C31.5938 17.5185 33.1703 17.9254 34.4925 18.739C35.8401 19.5527 36.8699 20.7096 37.5819 22.2098C38.3192 23.6846 38.6879 25.4645 38.6879 27.5495C38.6879 27.9817 38.6625 28.3886 38.6117 28.77C38.5862 29.1514 38.5481 29.4565 38.4972 29.6854H24.042V26.062H34.3781L33.1957 27.6258C33.1957 25.6679 32.8779 24.244 32.2422 23.354C31.6319 22.4387 30.7674 21.981 29.6486 21.981C28.8604 21.981 28.1484 22.1844 27.5128 22.5912C26.9025 22.998 26.4194 23.6464 26.0634 24.5364C25.7074 25.4263 25.5294 26.5833 25.5294 28.0072C25.5294 29.3548 25.771 30.4609 26.2541 31.3254C26.7372 32.1645 27.3983 32.7875 28.2374 33.1943C29.1019 33.6011 30.1063 33.8045 31.2505 33.8045C32.0133 33.8045 32.8016 33.7028 33.6152 33.4994C34.4543 33.2706 35.1917 32.9909 35.8274 32.6603L37.3912 36.9321C36.4758 37.3389 35.446 37.6949 34.3018 38C33.183 38.3051 31.9498 38.4577 30.6021 38.4577C28.3646 38.4577 26.4448 38.0381 24.8429 37.199C23.2664 36.36 22.0587 35.1903 21.2196 33.6901C20.3805 32.1645 19.9609 30.3973 19.9609 28.3886ZM41.4895 28.3886C41.4895 26.1764 41.9345 24.2567 42.8244 22.6294C43.7143 21.002 44.9348 19.7434 46.4859 18.8534C48.0624 17.9635 49.8677 17.5185 51.9019 17.5185C53.0715 17.5185 54.1521 17.6711 55.1438 17.9762C56.1355 18.2813 57.0508 18.6627 57.8899 19.1204L55.8303 23.6592C55.3472 23.3032 54.7751 23.0235 54.114 22.8201C53.4529 22.5912 52.7664 22.4768 52.0544 22.4768C51.1645 22.4768 50.3508 22.6802 49.6134 23.087C48.9015 23.4939 48.3294 24.1168 47.8971 24.9559C47.4903 25.795 47.2868 26.8757 47.2868 28.1979C47.2868 29.3421 47.503 30.3083 47.9352 31.0966C48.3675 31.8594 48.9523 32.4442 49.6897 32.851C50.4525 33.2324 51.317 33.4231 52.2833 33.4231C52.9444 33.4231 53.6055 33.3214 54.2666 33.118C54.9277 32.9146 55.4998 32.6476 55.9829 32.3171L58.0425 36.8558C57.2034 37.3135 56.2244 37.6949 55.1057 38C54.0123 38.3051 52.7918 38.4577 51.4442 38.4577C49.4609 38.4577 47.7191 38.0509 46.2189 37.2372C44.7187 36.3981 43.5491 35.2285 42.71 33.7283C41.8963 32.2026 41.4895 30.4227 41.4895 28.3886ZM61.2871 17.9762H66.8556L67.5803 21.981V38H61.8592V22.7438C61.8592 22.2098 61.8338 21.7394 61.7829 21.3326C61.7575 20.9003 61.6939 20.4045 61.5922 19.8451L61.2871 17.9762ZM67.0082 25.4899V21.9047C67.7964 20.5316 68.7754 19.4637 69.945 18.7009C71.1147 17.9126 72.386 17.5185 73.7591 17.5185V23.1633C72.2589 23.1633 71.0002 23.3286 69.9832 23.6592C68.9915 23.9897 67.9998 24.6 67.0082 25.4899ZM76.0544 28.3886C76.0544 26.2019 76.4739 24.2948 77.313 22.6675C78.1521 21.0402 79.309 19.7815 80.7838 18.8916C82.2586 17.9762 83.9495 17.5185 85.8565 17.5185C87.6872 17.5185 89.2637 17.9254 90.5859 18.739C91.9335 19.5527 92.9633 20.7096 93.6753 22.2098C94.4127 23.6846 94.7814 25.4645 94.7814 27.5495C94.7814 27.9817 94.7559 28.3886 94.7051 28.77C94.6797 29.1514 94.6415 29.4565 94.5907 29.6854H80.1354V26.062H90.4715L89.2891 27.6258C89.2891 25.6679 88.9713 24.244 88.3356 23.354C87.7254 22.4387 86.8609 21.981 85.7421 21.981C84.9538 21.981 84.2419 22.1844 83.6062 22.5912C82.9959 22.998 82.5128 23.6464 82.1568 24.5364C81.8009 25.4263 81.6229 26.5833 81.6229 28.0072C81.6229 29.3548 81.8644 30.4609 82.3476 31.3254C82.8307 32.1645 83.4918 32.7875 84.3309 33.1943C85.1954 33.6011 86.1997 33.8045 87.344 33.8045C88.1068 33.8045 88.895 33.7028 89.7087 33.4994C90.5478 33.2706 91.2852 32.9909 91.9208 32.6603L93.4846 36.9321C92.5692 37.3389 91.5394 37.6949 90.3952 38C89.2764 38.3051 88.0432 38.4577 86.6956 38.4577C84.458 38.4577 82.5383 38.0381 80.9364 37.199C79.3599 36.36 78.1521 35.1903 77.313 33.6901C76.4739 32.1645 76.0544 30.3973 76.0544 28.3886ZM96.7057 22.3624V17.9762H111.161V22.3624H96.7057ZM100.138 31.0584V13.5519L105.859 12.7891V30.3337C105.859 31.4271 106.076 32.1899 106.508 32.6222C106.94 33.0544 107.576 33.2706 108.415 33.2706C108.771 33.2706 109.152 33.2324 109.559 33.1561C109.991 33.0544 110.424 32.9273 110.856 32.7747L111.466 37.6949C110.83 37.9237 110.144 38.1017 109.406 38.2288C108.669 38.3814 107.932 38.4577 107.194 38.4577C105.745 38.4577 104.486 38.1907 103.418 37.6567C102.376 37.0973 101.562 36.271 100.977 35.1776C100.418 34.0842 100.138 32.7112 100.138 31.0584Z" fill="#EAEAEA"/>
<defs>
<linearGradient id="paint0_linear_7216_6373" x1="213.5" y1="57.3065" x2="213.5" y2="2.74445e-06" gradientUnits="userSpaceOnUse">
<stop stop-color="#F50057"/>
<stop offset="1" stop-color="#D62A5E"/>
</linearGradient>
</defs>
</svg>
