<svg width="40" height="40" viewBox="0 0 40 40" fill="none" xmlns="http://www.w3.org/2000/svg">
  <defs>
    <linearGradient id="brandGradient" x1="0%" y1="0%" x2="100%" y2="100%">
      <stop offset="0%" style="stop-color:#8b5cf6;stop-opacity:1" />
      <stop offset="100%" style="stop-color:#3b82f6;stop-opacity:1" />
    </linearGradient>
  </defs>

  <!-- Background circle -->
  <circle cx="20" cy="20" r="18" fill="url(#brandGradient)" stroke="none"/>

  <!-- Chat bubble icon -->
  <g transform="translate(10, 10)">
    <!-- Main chat bubble shape -->
    <path d="M10 0C15.523 0 20 4.477 20 10s-4.477 10-10 10H7l-4 4c-.6.6-1.6.2-1.6-.6V17C.6 15.4 0 12.8 0 10 0 4.477 4.477 0 10 0z" fill="white"/>

    <!-- Two dots inside representing conversation -->
    <circle cx="7" cy="8" r="1.5" fill="url(#brandGradient)"/>
    <circle cx="13" cy="8" r="1.5" fill="url(#brandGradient)"/>

    <!-- Curved smile line -->
    <path d="M6 12c1 2 3 2 4 0s3 0 4 0" stroke="url(#brandGradient)" stroke-width="1.5" stroke-linecap="round" fill="none"/>
  </g>
</svg>