<svg width="40" height="40" viewBox="0 0 40 40" fill="none" xmlns="http://www.w3.org/2000/svg">
  <defs>
    <linearGradient id="brandGradient" x1="0%" y1="0%" x2="100%" y2="100%">
      <stop offset="0%" style="stop-color:#8b5cf6;stop-opacity:1" />
      <stop offset="100%" style="stop-color:#3b82f6;stop-opacity:1" />
    </linearGradient>
  </defs>
  
  <!-- Background circle -->
  <circle cx="20" cy="20" r="18" fill="url(#brandGradient)" stroke="none"/>
  
  <!-- Chat bubble with AI symbol -->
  <g transform="translate(8, 8)">
    <!-- Main chat bubble -->
    <path d="M18 12c0-4.418-3.582-8-8-8s-8 3.582-8 8c0 1.412.365 2.74 1.007 3.895L2.5 18.5c-.277.416-.166.973.25 1.25.416.277.973.166 1.25-.25L6.105 18.007C7.26 18.635 8.588 19 10 19h8c0 2.761-2.239 5-5 5h-3l-2.5 1.5c-.416.277-.527.834-.25 1.25.277.416.834.527 1.25.25L9.5 23H13c4.418 0 8-3.582 8-8V12z" fill="white" opacity="0.9"/>
    
    <!-- AI brain/circuit pattern -->
    <circle cx="10" cy="12" r="2" fill="url(#brandGradient)" opacity="0.8"/>
    <circle cx="6" cy="10" r="1" fill="url(#brandGradient)" opacity="0.6"/>
    <circle cx="14" cy="10" r="1" fill="url(#brandGradient)" opacity="0.6"/>
    <circle cx="8" cy="14" r="0.8" fill="url(#brandGradient)" opacity="0.4"/>
    <circle cx="12" cy="14" r="0.8" fill="url(#brandGradient)" opacity="0.4"/>
    
    <!-- Connecting lines -->
    <path d="M8 12L6 10M12 12L14 10M9 13L8 14M11 13L12 14" stroke="url(#brandGradient)" stroke-width="0.5" opacity="0.6" stroke-linecap="round"/>
  </g>
</svg>